/* XPM */
static char *result[] = {
/* columns rows colors chars-per-pixel */
"32 32 21 1 ",
"  c gray24",
". c #3F3F3F",
"X c gray26",
"o c #414141",
"O c gray25",
"+ c #3E3E3E",
"@ c #444444",
"# c #484848",
"$ c gray29",
"% c #494949",
"& c gray28",
"* c #464646",
"= c #434343",
"- c #4B4B4B",
"; c gray27",
": c black",
"> c #4C4C4C",
", c #FF1313",
"< c #282828",
"1 c #FFC8C8",
"2 c #BB1313",
/* pixels */
"     .@oO...+.OOO. +.OOo@@O     ",
"   +@#%%#&&*&####&&*&#&%##&@.   ",
"   &%$$$$$$$%%%%%%%$$$%$$$>$&+  ",
"  O#$>$$$%#%%%%%%%%%$$$$>$>$#o  ",
"  o%$$%$$%%%%%%%%%%%%#%%$>$$>*+ ",
"  @$$#%%%%%%%%%%%%%%%%$$%$$$$#O ",
"  @%%$$$%%%%%%%%%%%%%%%%%#$$$>& ",
"  &$$%#%%%%%%%%%%%%%%%%%%$$%>$*.",
"  @#%$$$%%%%%%%%%%%%%%%%%%%$$$%o",
"  &$$%#%%%%%%%%%%%%%%%%%%$$$$$%@",
" +&#%$$$%%%%%%%%%%%%%%%%%%#%$$>@",
" +%$$%#%%%%%%%%%%%%%%%%%%$$$>$$@",
" .%#%$$$%%%%%::%::%%%%%%%%#%$>$#",
" @$$$%#%%%%%:,,:<<:%%%%%%%$$%$%*",
" &&%%$$$%%%:,1,<<<<:%%%%%%%%%#$&",
".*$$$%#%%%%:,,<,<<<:%%%%%%%%%#&O",
"O#%#%$$$%%%:2,,<<<<:%%%%%%%%%#*.",
"@%$$$%#%%%%%:2<<<<:%%%%%%%%%%#*.",
"O%%#%$$$%%%%%:2<<:%%%%%%%%%%%#*.",
"O%$$$%#%%%%%%%:2:%%%%%%%%%%%%%#.",
".&%#%$$$%%%%%%%:%%%%%%%%%%%%%$#.",
"+&$$$%#%%%%%%%%%%%%%%%%%%%%%%$%.",
" &%%%$$$%%%%%%%%%%%%%%%%%%%%$$%+",
" &$>$%#%%%%%%%%%%%%%%%%%%%>$$%*+",
" &#$%$$%%%%%%%%%%%%%%%%%%%$$>$# ",
" @$$$%%%%%%%%%%%%%%%%%%%%$>>$%& ",
" O%>$>$%%%%%%%%%%%%%%%%%%$$$$$& ",
" o$>%$$%%%%%%%%%%%%%%%$$$>$$>%o ",
" .*%%##&&&##%%%%%%%%##%%$$>>>$& ",
"  OoOOO....Oo&&#%####%$>%>$>$#. ",
"              +o@**&@&@&#&&**&  ",
"                 +. +  ++. +    "
};
