/* XPM */
static char *result[] = {
/* columns rows colors chars-per-pixel */
"32 32 24 1 ",
"  c gray24",
". c #3F3F3F",
"X c gray26",
"o c #414141",
"O c gray25",
"+ c #3E3E3E",
"@ c #444444",
"# c #484848",
"$ c gray29",
"% c #494949",
"& c gray28",
"* c #464646",
"= c #434343",
"- c #4B4B4B",
"; c gray27",
": c black",
"> c #4C4C4C",
", c #010202",
"< c #4CBAD8",
"1 c #A7F6FE",
"2 c #80E5EF",
"3 c #A8F7FF",
"4 c #E1FCFF",
"5 c #01BEF2",
/* pixels */
"     .*oO...+.OOO. +.OOo**O     ",
"   +@#%%#&&*&####&&*&#&%&#&@.   ",
"   *%%%%%%%$%%%%%%%$$$%$$%>$*+  ",
"  O#%>>>%%%%%%%%%%%%%$>%%%>%%o  ",
"  o%%>$%%$$%%%%%%%%%%%%%$>%%%#+ ",
"  @$$%%%%%%%%%%%%%%%%%%%>%>%%#O ",
"  @$%%%%%%%%%%%%%%%%%%%%%%$>>>* ",
"  @%%%%%%%%%%%%%%%%%%%%%%%%$>%&.",
"  *%%%%%%%%%%%%%%%%%%%%%%%%$%$%o",
"  *%%%%%%%%%%%%%%%%%%%%%%%$>%$%*",
" +&%%%%%%%%%%%%%%%%%%%%%%%%%%>%*",
" +#%%%%%%%%%%:%%%:%%%%%%%%$>%%%@",
" .%%%%%%%%%%%::%::%%%%%%%%%%%%>%",
" o$%%%%%%%%%,<<:<<:%%%%%%%%>%%%*",
" @%%%%%%%%::<1<2<3<::%%%%%%%%$%*",
".&%%%%%%%%%:<<232<<:%%%%%%%%$%&o",
"O#%%%%%%%%::324<323::%%%%%%%%#*.",
"*%%%%%%%%%%%:52425:%%%%%%%%%%#*.",
"O%%%%%%%%%%%%:525:%%%%%%%%%%%#*.",
"O%%%%%%%%%%%%::5::%%%%%%%%%%%%#.",
".&%%%%%%%%%%%%%:%%%%%%%%%%%%%$#.",
"+*$%%%%%%%%%%%%:%%%%%%%%%%%%%$%.",
" *$%%%%%%%%%%%%%%%%%%%%%%%%%%%%+",
" @$$%%%%%%%%%%%%%%%%%%%%%$%>%$*+",
" @%%$%%%%%%%%%%%%%%%%%%%%%$%%># ",
" @%$%%%%%%%%%%%%%%%%%%%%%>>%>%* ",
" o$>%>$%%%%%%%%%%%%%%%%%%$%%>>* ",
" o$>$$$%%%%%%%%%%%%%%%%%>>>>>%o ",
" .*%%##&&&##%%%%%%%%##%$%%%>>%* ",
"  OoOOO....Oo*&#%####$%%%>%%%%. ",
"              +o@***@***%#&&&*+ ",
"                 +.++  ++.++    "
};
