/* XPM */
static char *df0957a403044abef14506e90007c8b0F8r8b4C2xj9pme1i[] = {
/* columns rows colors chars-per-pixel */
"32 32 26 1 ",
"  c gray24",
". c #3F3F3F",
"X c gray26",
"o c #414141",
"O c gray25",
"+ c #3E3E3E",
"@ c #444444",
"# c #484848",
"$ c gray29",
"% c #494949",
"& c gray28",
"* c #464646",
"= c #434343",
"- c #4B4B4B",
"; c gray27",
": c black",
"> c #4C4C4C",
", c #FF1313",
"< c #FFC8C8",
"1 c #BB1313",
"2 c #5B4A49",
"3 c #826D6C",
"4 c #6D5957",
"5 c #D7D9EA",
"6 c #EAECF2",
"7 c white",
/* pixels */
"     .@oO...+.OOO. +.OOo@@O     ",
"   +@#%%#&&*&####&&*&#&%##&@.   ",
"   @%%%%%%%$%%%%%%%$$$%$$%>$;+  ",
"  O%%>>>%%%%%%%%%%%%%$>%%%>%%o  ",
"  o%%>$%%$$%%%%%%%%%%%%%$>%%%#+ ",
"  @$$%%%%%%%%%%%%%%%%%%%>$$%%#O ",
"  @$%%%%%%%%%%%%%%%%%%%%%%$%$$& ",
"  @%%%%%%%%%%%%%%%%%%%%%%>$$%%&.",
"  ;%%%%%%%%%%%%%%%%%%%%%%%%%$$>o",
"  *%%%%%%%%%%%%%%%%%%%%%$%%>>$%@",
" +&%%%%%%%%%%%%%%%%%%%%%%%%%%>$@",
" +#%%%%%%%%%%%%%%%%%%%%%%$>%%>%@",
" .%%%%%%%%%%%::%::%%%%%%%%%%%$>&",
" o$%%%%%%%%%:,,:,,:%%%%%%%%$>%%*",
" @%%%%%%%%%:,<,,,,,:%%%%%%%%%%$;",
".&%%%%%%%%%:,,,,,,,:%%%%%%%%%#&o",
"O#%%%%%%%%%:1,,,,21:%%%%%%%%%#*.",
"@%%%%%%%%%%%:13434555555555555*.",
"O%%%%%%%%%%%%:34346677777777%#*.",
"O%%%%%%%%%%%%%:1:2%%%%%%%%%%%%#.",
".&%%%%%%%%%%%%%:%%%%%%%%%%%%%$#.",
"+*$%%%%%%%%%%%%%%%%%%%%%%%%%%$%.",
" ;$%%%%%%%%%%%%%%%%%%%%%%%%%%%%+",
" @$$%%%%%%%%%%%%%%%%%%%%%%>$%$*+",
" @%%$%%%%%%%%%%%%%%%%%%%%%$%%># ",
" @%$%%%%%%%%%%%%%%%%%%%%%>>%>$@ ",
" o$>%>$%%%%%%%%%%%%%%%%%%$%%>$@ ",
" o$>$$$%%%%%%%%%%%%%%%$%%>>>%$@ ",
" .*%%##&&&##%%%%%%%%##%$%$>>>>@ ",
"  OoOOO....Oo@&#%####$%%%>%>$%. ",
"              +o@**;@@@&%%***@  ",
"                 +.++  ++.++    "
};
