/* XPM */
static char *b74f7f5d877448ffc0034b3e08fb26c0BoTrOgn67Jyo7f2t[] = {
/* columns rows colors chars-per-pixel */
"32 32 23 1 ",
"  c gray24",
". c #3F3F3F",
"X c #444444",
"o c #414141",
"O c gray25",
"+ c #3E3E3E",
"@ c #484848",
"# c #494949",
"$ c gray28",
"% c #464646",
"& c gray29",
"* c #D7D9EA",
"= c #4C4C4C",
"- c gray27",
"; c white",
": c black",
"> c #EAECF2",
", c #FF1313",
"< c #FFC8C8",
"1 c #5B4A49",
"2 c #6D5957",
"3 c #826D6C",
"4 c #BB1313",
/* pixels */
"     .XoO...+.OOO. +.OOoXXO     ",
"   +X@##@$$%$@@@@$$%$@$#@@$X.   ",
"   X#######&###*###&&&#&&#=&$+  ",
"  O##===#######*#####&=###=#@o  ",
"  o##=&##&&####*;#######&=###@+ ",
"  X&&##########*;#######=&&##@O ",
"  X&###########*;#########&#&&$ ",
"  X############*;########=&&##$.",
"  $############*;###########&&=o",
"  $############*;#######&##==&#X",
" +%############*;############=&X",
" +@############*;########&=##=#X",
" .###########::*>:###########&=$",
" o&#########:,,*>,:########&=##%",
" X#########:,<1221,:##########&$",
".$#########:,,,33,,:#########@$O",
"O@#########:4,,22,4:#########@%.",
"X###########:4,334:##########@%.",
"O############:4,4:###########@%.",
"O#############:4:#############@.",
".$#############:#############&@.",
"+%&##########################&#.",
" $&############################+",
" $&&######################=&#&%+",
" $@#&#####################&##=@ ",
" $#&#####################==#=&X ",
" O&=#=&##################&##=&X ",
" o&=&&&###############&##===#&X ",
" .%##@@$$$@@########@@#&#&====X ",
"  OoOOO....OoX$@#@@@@&###=#=&#. ",
"              +oX%%$XXX$##%%%X  ",
"                 +. +  ++.++    "
};
