/* XPM */
static char *_f775c9981e740fe99386b9af7ab8fd2hFmElgL11lMHN7CD[] = {
/* columns rows colors chars-per-pixel */
"32 32 26 1 ",
"  c gray24",
". c #3F3F3F",
"X c #444444",
"o c #414141",
"O c gray25",
"+ c #3E3E3E",
"@ c #484848",
"# c #494949",
"$ c gray28",
"% c #464646",
"& c gray29",
"* c #4C4C4C",
"= c gray27",
"- c black",
"; c #FF1313",
": c #FFC8C8",
"> c #826D6C",
", c #826C6B",
"< c #6D5957",
"1 c #6D5856",
"2 c #BB1313",
"3 c #5B4A49",
"4 c #6C5856",
"5 c #E9EBF1",
"6 c #D6D8E9",
"7 c #FEFEFE",
/* pixels */
"     .XoO...+.OOO. +.OOoXXO     ",
"   +X@##@$$%$@@@@$$%$@$#@@$X.   ",
"   X#######&#######&&&#&&#*&%+  ",
"  O##***#############&*###*##o  ",
"  o##*&##&&#############&*###@+ ",
"  X&&###################*&&##@O ",
"  X&######################&#&&$ ",
"  X######################*&&##$.",
"  %#########################&&*o",
"  %#####################&##**&#X",
" +$##########################*&X",
" +@######################&*##*#X",
" .###########--#--###########&*$",
" o&#########-;;-;;-########&*##%",
" X#########-;:;>,;;-##########&%",
".$#########-;;;<1;;-#########@$o",
"O@#########-2;;>,;2-#########@%.",
"X###########-23<43-##########@%.",
"O############-256-###########@%.",
"O#############-56#############@.",
".$#############76############&@.",
"+%&############76############&#.",
" %&############76##############+",
" X&&###########76#########*&#&%+",
" X##&##########76#########&##*@ ",
" X#&###########76########**#*&X ",
" o&*#*&########76########&##*&X ",
" o&*&&&########76#####&##***#&X ",
" .%##@@$$$@@####6###@@#&#&****X ",
"  OoOOO....OoX$@6@@@@&###*#*&#. ",
"              +oX%%%XXX$##%%%X  ",
"                 +.++  ++.++    "
};
