/* XPM */
static char *result[] = {
/* columns rows colors chars-per-pixel */
"32 32 26 1 ",
"  c gray24",
". c #3F3F3F",
"X c gray26",
"o c #414141",
"O c gray25",
"+ c #3E3E3E",
"@ c #444444",
"# c #484848",
"$ c gray29",
"% c #494949",
"& c gray28",
"* c #464646",
"= c #434343",
"- c #4B4B4B",
"; c gray27",
": c black",
"> c #826D6C",
", c #6D5957",
"< c #5B4A49",
"1 c #EAECF2",
"2 c #D7D9EA",
"3 c #4C4C4C",
"4 c white",
"5 c #111111",
"6 c #1E1E1E",
"7 c #2D2D2D",
/* pixels */
"     .@oO...+.OOO. +.OOo@@O     ",
"   +@#%%#&&*&####&&*&#&%##&@.   ",
"   @%%%%%%%$%%%%%%%$$$%$$%3$;+  ",
"  O%%333%%%%%%%%%%%%%$3%%%3%%o  ",
"  o%%3$%%$$%%%%%%%%%%%%%$3%%%#+ ",
"  @$$%%%%%%%%%%%%%%%%%%%3$$%%#O ",
"  @$%%%%%%%%%%%%%%%%%%%%%%$%$$& ",
"  @%%%%%%%%%%%%::%%%%%%%%3$$%%&.",
"  ;%%%%%%%%%%%:>>:%%%%%%%%%%$$3o",
"  *%%%%%%%%%%%:,,:%%%%%%$%%33$%@",
" +&%%%%%%%%%%%:>>:%%%%%%%%%%%3$@",
" +#%%%%%%%%%%:<,,<:%%%%%%$3%%3%@",
" .%%%%%%%%%%%%:12:%%%%%%%%%%%$3&",
" o$%%%%%%%%%%%:12:%%%%%%%%%$3%%*",
" @%%%%%%%%%%%%:42:%%%%%%%%%%%%$;",
".&%%%%%%%%%%%%:42:%%%%%%%%%%%#&o",
"O#%%%%%%%%%%%%:42:%%%%%%%%%%%#*.",
"@%%%%%%%%%%%%%:42:%%%%%%%%%%%#*.",
"O%%%%%%%%%%%%%:42:%%%%%%%%%%%#*.",
"O%%%%%%%%%%%%%:42:%%%%%%%%%%%%#.",
".&%%%%%%%%%%::552:%%%%%%%%%%%$#.",
"+*$%%%%%%%%:556625::%%%%%%%%%$%.",
" ;$%%%%%%%:5::56555:%%%%%%%%%%%+",
" @$$%%%%%%:565:56755:%%%%%3$%$*+",
" @%%$%%%%:5676677667:%%%%%$%%3# ",
" @%$%%%%%%%%%%%%%%%%%%%%%33%3$@ ",
" o$3%3$%%%%%%%%%%%%%%%%%%$%%3$@ ",
" o$3$$$%%%%%%%%%%%%%%%$%%333%$@ ",
" .*%%##&&&##%%%%%%%%##%$%$3333@ ",
"  OoOOO....Oo@&#%####$%%%3%3$%. ",
"              +o@**;@@@&%%***@  ",
"                 +.++  ++.++    "
};
