/* XPM */
static char *da2756a2302b4068a28da8c9d5ecf837IcO39lwZb7FYtUx1[] = {
/* columns rows colors chars-per-pixel */
"32 32 32 1 ",
"  c #0E0E0E",
". c gray5",
"X c gray8",
"o c #101010",
"O c gray7",
"+ c gray9",
"@ c gray10",
"# c gray11",
"$ c gray12",
"% c #1B1B1B",
"& c #181818",
"* c gray13",
"= c #202020",
"- c gray14",
"; c gray15",
": c #282828",
"> c gray16",
", c #161616",
"< c #2A2A2A",
"1 c #272727",
"2 c #252525",
"3 c #222222",
"4 c gray17",
"5 c #151515",
"6 c #111111",
"7 c #191919",
"8 c #1E1E1E",
"9 c #1D1D1D",
"0 c gray4",
"q c #0C0C0C",
"w c #090909",
"e c #0B0B0B",
/* pixels */
" .XX   o o,+@#+. @###$$###77777&",
"&+******==1;:>$ ,;:::::<<<>1131*",
"=3-1>>>><<<>>>$ ,1><<<><>><<:*1*",
"-*-><<<4<:>>><*oX=>><><<<<>>>-1*",
"**;<><<<4<<>>>*, 3>><>>>><<4<<1=",
"-*1<4<>>>:>><<-X,*>>><<<4<<>:>;*",
"**::<><<<>>>>>-X.3<<>>>:<<>44<:*",
"-*1<<<>:>>>>>>-, *>>>>><4<<<>:>-",
"**><:><<<>>>>>-X *><<>>>:><<4<4;",
"-*:<<<>:>>>>>>-,61<:>>>><4<<<<:;",
"*-><:><<<>>>>>-X =><>>>>>:><><<:",
"**><<<>:>>>>>>-,,*>>>>>>><44<>>;",
"*;<<>><<<>>>>>-X.*>><>>>>>:><4<<",
"3;<><<>:>>>>>>-,,*>>>>>>><<<<<>;",
"7$*=$=3=$*-111=X.$*1*-*8$$8$==$&",
"0.o o  q  ,XXX,   ,,,, qqqqqqqq0",
"w ,,,,,&,X.   ..  6qoqX,+@+@+&+.",
".#;;;;;;;-=====****3-**::>:>::* ",
".$>>>>>>>>>>>>>>>><<<<>>><>>>>*,",
"q$>>>>>>>>>>>>>><<<>>>>>>>><>>-6",
"0&<>>>>>>>>>>>>>>:><<<>>><>>><1,",
"0X1>>>>>>>>>>>>><<<>>>>>>>>>><36",
"w.*>>>>>>>>>>>>>>:><<<>>><>>>>-6",
"w.7>>>>>>>>>>>>><<<>>>>>><<<<>*6",
"w07<<>>>>>>>>>>>>:><<<>>><><<<1X",
"we+:>>>>>>>>>>>><<<>>>>><44<<>= ",
"w0+>><<<>>>>>>>>>:><<<>>>:>><<1X",
"w0&<4<>>>>>>>>>><<<>>><<<4<<<:= ",
"ww&1:<<:::>>>>>>>:><<<><<><<<<- ",
"ww+---------11:><<<>:<<<<44<>>#q",
"ww 771*-3*$$8$=3*1-;3-*;1;1>>1+q",
"ww0o.,@&7,, ,XX,X,,,X,XXX,+&77,q"
};
